<svg width="327" height="140" viewBox="0 0 327 140" fill="none" xmlns="http://www.w3.org/2000/svg">
<path d="M60 48.5619C60 40.6139 66.6088 34.2601 74.5506 34.5727L110.551 35.9896C118.063 36.2853 124 42.461 124 49.9788V88.7214C124 96.1009 118.272 102.213 110.908 102.692L74.9078 105.031C66.8357 105.556 60 99.1499 60 91.0607V48.5619Z" fill="#0075FF" fill-opacity="0.78"/>
<path d="M60.5 48.5619C60.5 40.8978 66.8728 34.7709 74.5309 35.0723L110.531 36.4892C117.775 36.7743 123.5 42.7295 123.5 49.9788V88.7214C123.5 95.8373 117.976 101.732 110.875 102.193L74.8754 104.532C67.0915 105.038 60.5 98.861 60.5 91.0607V48.5619Z" stroke="white" stroke-opacity="0.18"/>
<path d="M119 44.8083C119 35.6623 126.653 28.3773 135.788 28.8277L178.788 30.9476C187.308 31.3676 194 38.3979 194 46.9282V91.7607C194 100.157 187.51 107.124 179.136 107.72L136.136 110.78C126.875 111.44 119 104.105 119 94.8209V44.8083Z" fill="#9BD4FF" fill-opacity="0.8"/>
<path d="M119.5 44.8083C119.5 35.9481 126.914 28.8908 135.763 29.3271L178.763 31.447C187.017 31.8539 193.5 38.6645 193.5 46.9282V91.7607C193.5 99.8941 187.213 106.644 179.1 107.222L136.1 110.282C127.129 110.92 119.5 103.815 119.5 94.8209V44.8083Z" stroke="white" stroke-opacity="0.24"/>
<path d="M187 39.0573C187 29.8185 194.802 22.4996 204.022 23.09L251.022 26.0994C259.445 26.6387 266 33.6271 266 42.0667V96.4661C266 104.766 259.654 111.688 251.385 112.406L204.385 116.49C195.037 117.302 187 109.933 187 100.55V39.0573Z" fill="#DFE0E3" fill-opacity="0.68"/>
<path d="M187.5 39.0573C187.5 30.1072 195.059 23.017 203.99 23.5889L250.99 26.5984C259.15 27.1208 265.5 33.8908 265.5 42.0667V96.4661C265.5 104.507 259.352 111.212 251.342 111.908L204.342 115.991C195.286 116.778 187.5 109.639 187.5 100.55V39.0573Z" stroke="white" stroke-opacity="0.4"/>
<g filter="url(#filter0_d_12967_50820)">
<path d="M76.0336 52.0006L110.516 52.611C112.446 52.6452 114 54.3142 114 56.3418C114 58.3672 112.446 60.0064 110.516 60L76.0336 59.8954C73.8122 59.889 72 58.1026 72 55.9064C72 53.7102 73.8148 51.9622 76.0336 52.0006Z" fill="white" fill-opacity="0.9" shape-rendering="crispEdges"/>
</g>
<g filter="url(#filter1_d_12967_50820)">
<path d="M76.5333 79.0013C79.0087 78.9392 81 81.1117 81 83.8516C81 86.5916 79.0087 88.8938 76.5333 88.9965C74.0367 89.0992 72 86.9294 72 84.1489C72 81.3684 74.0397 79.0634 76.5333 79.0013Z" fill="white" fill-opacity="0.7" shape-rendering="crispEdges"/>
</g>
<g filter="url(#filter2_d_12967_50820)">
<path d="M87.7647 79.562L110.612 79.0009C112.489 78.9543 114 80.7098 114 82.9193C114 85.1288 112.489 86.9844 110.612 87.0613L87.7647 87.9972C85.6939 88.0811 84 86.2487 84 83.9019C84 81.555 85.6912 79.6109 87.7647 79.5597V79.562Z" fill="white" fill-opacity="0.7" shape-rendering="crispEdges"/>
</g>
<g filter="url(#filter3_d_12967_50820)">
<path d="M135.558 48.0033L179.121 48.8269C181.271 48.8678 183 50.7172 183 52.9592C183 55.2011 181.268 57.012 179.121 56.9999L135.558 56.7977C133.051 56.7856 131 54.7917 131 52.3451C131 49.8985 133.048 47.9527 135.558 48.0009V48.0033Z" fill="white" fill-opacity="0.9" shape-rendering="crispEdges"/>
</g>
<g filter="url(#filter4_d_12967_50820)">
<path d="M135.534 81.0011C138.008 80.9437 140 83.119 140 85.8608C140 88.5998 138.008 90.901 135.534 90.9968C133.04 91.0953 131 88.9199 131 86.1399C131 83.3598 133.037 81.0586 135.534 81.0011Z" fill="white" fill-opacity="0.7" shape-rendering="crispEdges"/>
</g>
<g filter="url(#filter5_d_12967_50820)">
<path d="M147.41 80.6823L179.094 80.0008C181.26 79.954 183 81.8815 183 84.3032C183 86.7249 181.256 88.7538 179.094 88.8319L147.41 89.9972C144.982 90.0857 143 88.0593 143 85.4685C143 82.8778 144.982 80.7344 147.41 80.6823Z" fill="white" fill-opacity="0.7" shape-rendering="crispEdges"/>
</g>
<g filter="url(#filter6_d_12967_50820)">
<path d="M206.324 47.0038L251.348 48.0901C253.369 48.1389 255 50.1598 255 52.6033C255 55.0467 253.373 57.0162 251.348 56.9999L206.324 56.6342C203.942 56.6152 202 54.4264 202 51.7472C202 49.0681 203.942 46.9442 206.324 47.0011V47.0038Z" fill="white" fill-opacity="0.9" shape-rendering="crispEdges"/>
</g>
<g filter="url(#filter7_d_12967_50820)">
<path d="M207.035 83.0034C209.786 82.9292 212 85.5334 212 88.8225C212 92.1116 209.786 94.8745 207.035 94.9959C204.262 95.1174 202 92.5131 202 89.1768C202 85.8404 204.262 83.0742 207.035 83V83.0034Z" fill="white" fill-opacity="0.7" shape-rendering="crispEdges"/>
</g>
<g filter="url(#filter8_d_12967_50820)">
<path d="M219.005 82.9116L251.489 82.0011C253.432 81.9461 255 84.0158 255 86.6259C255 89.2332 253.435 91.4213 251.489 91.508L219.005 92.9966C216.803 93.0978 215 90.9068 215 88.103C215 85.2992 216.799 82.9752 219.005 82.9116Z" fill="white" fill-opacity="0.7" shape-rendering="crispEdges"/>
</g>
<defs>
<filter id="filter0_d_12967_50820" x="62" y="46" width="62" height="28" filterUnits="userSpaceOnUse" color-interpolation-filters="sRGB">
<feFlood flood-opacity="0" result="BackgroundImageFix"/>
<feColorMatrix in="SourceAlpha" type="matrix" values="0 0 0 0 0 0 0 0 0 0 0 0 0 0 0 0 0 0 127 0" result="hardAlpha"/>
<feOffset dy="4"/>
<feGaussianBlur stdDeviation="5"/>
<feComposite in2="hardAlpha" operator="out"/>
<feColorMatrix type="matrix" values="0 0 0 0 0 0 0 0 0 0 0 0 0 0 0 0 0 0 0.05 0"/>
<feBlend mode="normal" in2="BackgroundImageFix" result="effect1_dropShadow_12967_50820"/>
<feBlend mode="normal" in="SourceGraphic" in2="effect1_dropShadow_12967_50820" result="shape"/>
</filter>
<filter id="filter1_d_12967_50820" x="62" y="73" width="29" height="30" filterUnits="userSpaceOnUse" color-interpolation-filters="sRGB">
<feFlood flood-opacity="0" result="BackgroundImageFix"/>
<feColorMatrix in="SourceAlpha" type="matrix" values="0 0 0 0 0 0 0 0 0 0 0 0 0 0 0 0 0 0 127 0" result="hardAlpha"/>
<feOffset dy="4"/>
<feGaussianBlur stdDeviation="5"/>
<feComposite in2="hardAlpha" operator="out"/>
<feColorMatrix type="matrix" values="0 0 0 0 0 0 0 0 0 0 0 0 0 0 0 0 0 0 0.05 0"/>
<feBlend mode="normal" in2="BackgroundImageFix" result="effect1_dropShadow_12967_50820"/>
<feBlend mode="normal" in="SourceGraphic" in2="effect1_dropShadow_12967_50820" result="shape"/>
</filter>
<filter id="filter2_d_12967_50820" x="74" y="73" width="50" height="29" filterUnits="userSpaceOnUse" color-interpolation-filters="sRGB">
<feFlood flood-opacity="0" result="BackgroundImageFix"/>
<feColorMatrix in="SourceAlpha" type="matrix" values="0 0 0 0 0 0 0 0 0 0 0 0 0 0 0 0 0 0 127 0" result="hardAlpha"/>
<feOffset dy="4"/>
<feGaussianBlur stdDeviation="5"/>
<feComposite in2="hardAlpha" operator="out"/>
<feColorMatrix type="matrix" values="0 0 0 0 0 0 0 0 0 0 0 0 0 0 0 0 0 0 0.05 0"/>
<feBlend mode="normal" in2="BackgroundImageFix" result="effect1_dropShadow_12967_50820"/>
<feBlend mode="normal" in="SourceGraphic" in2="effect1_dropShadow_12967_50820" result="shape"/>
</filter>
<filter id="filter3_d_12967_50820" x="121" y="42" width="72" height="29" filterUnits="userSpaceOnUse" color-interpolation-filters="sRGB">
<feFlood flood-opacity="0" result="BackgroundImageFix"/>
<feColorMatrix in="SourceAlpha" type="matrix" values="0 0 0 0 0 0 0 0 0 0 0 0 0 0 0 0 0 0 127 0" result="hardAlpha"/>
<feOffset dy="4"/>
<feGaussianBlur stdDeviation="5"/>
<feComposite in2="hardAlpha" operator="out"/>
<feColorMatrix type="matrix" values="0 0 0 0 0 0 0 0 0 0 0 0 0 0 0 0 0 0 0.05 0"/>
<feBlend mode="normal" in2="BackgroundImageFix" result="effect1_dropShadow_12967_50820"/>
<feBlend mode="normal" in="SourceGraphic" in2="effect1_dropShadow_12967_50820" result="shape"/>
</filter>
<filter id="filter4_d_12967_50820" x="121" y="75" width="29" height="30" filterUnits="userSpaceOnUse" color-interpolation-filters="sRGB">
<feFlood flood-opacity="0" result="BackgroundImageFix"/>
<feColorMatrix in="SourceAlpha" type="matrix" values="0 0 0 0 0 0 0 0 0 0 0 0 0 0 0 0 0 0 127 0" result="hardAlpha"/>
<feOffset dy="4"/>
<feGaussianBlur stdDeviation="5"/>
<feComposite in2="hardAlpha" operator="out"/>
<feColorMatrix type="matrix" values="0 0 0 0 0 0 0 0 0 0 0 0 0 0 0 0 0 0 0.05 0"/>
<feBlend mode="normal" in2="BackgroundImageFix" result="effect1_dropShadow_12967_50820"/>
<feBlend mode="normal" in="SourceGraphic" in2="effect1_dropShadow_12967_50820" result="shape"/>
</filter>
<filter id="filter5_d_12967_50820" x="133" y="74" width="60" height="30" filterUnits="userSpaceOnUse" color-interpolation-filters="sRGB">
<feFlood flood-opacity="0" result="BackgroundImageFix"/>
<feColorMatrix in="SourceAlpha" type="matrix" values="0 0 0 0 0 0 0 0 0 0 0 0 0 0 0 0 0 0 127 0" result="hardAlpha"/>
<feOffset dy="4"/>
<feGaussianBlur stdDeviation="5"/>
<feComposite in2="hardAlpha" operator="out"/>
<feColorMatrix type="matrix" values="0 0 0 0 0 0 0 0 0 0 0 0 0 0 0 0 0 0 0.05 0"/>
<feBlend mode="normal" in2="BackgroundImageFix" result="effect1_dropShadow_12967_50820"/>
<feBlend mode="normal" in="SourceGraphic" in2="effect1_dropShadow_12967_50820" result="shape"/>
</filter>
<filter id="filter6_d_12967_50820" x="192" y="41" width="73" height="30" filterUnits="userSpaceOnUse" color-interpolation-filters="sRGB">
<feFlood flood-opacity="0" result="BackgroundImageFix"/>
<feColorMatrix in="SourceAlpha" type="matrix" values="0 0 0 0 0 0 0 0 0 0 0 0 0 0 0 0 0 0 127 0" result="hardAlpha"/>
<feOffset dy="4"/>
<feGaussianBlur stdDeviation="5"/>
<feComposite in2="hardAlpha" operator="out"/>
<feColorMatrix type="matrix" values="0 0 0 0 0 0 0 0 0 0 0 0 0 0 0 0 0 0 0.05 0"/>
<feBlend mode="normal" in2="BackgroundImageFix" result="effect1_dropShadow_12967_50820"/>
<feBlend mode="normal" in="SourceGraphic" in2="effect1_dropShadow_12967_50820" result="shape"/>
</filter>
<filter id="filter7_d_12967_50820" x="192" y="77" width="30" height="32" filterUnits="userSpaceOnUse" color-interpolation-filters="sRGB">
<feFlood flood-opacity="0" result="BackgroundImageFix"/>
<feColorMatrix in="SourceAlpha" type="matrix" values="0 0 0 0 0 0 0 0 0 0 0 0 0 0 0 0 0 0 127 0" result="hardAlpha"/>
<feOffset dy="4"/>
<feGaussianBlur stdDeviation="5"/>
<feComposite in2="hardAlpha" operator="out"/>
<feColorMatrix type="matrix" values="0 0 0 0 0 0 0 0 0 0 0 0 0 0 0 0 0 0 0.05 0"/>
<feBlend mode="normal" in2="BackgroundImageFix" result="effect1_dropShadow_12967_50820"/>
<feBlend mode="normal" in="SourceGraphic" in2="effect1_dropShadow_12967_50820" result="shape"/>
</filter>
<filter id="filter8_d_12967_50820" x="205" y="76" width="60" height="31" filterUnits="userSpaceOnUse" color-interpolation-filters="sRGB">
<feFlood flood-opacity="0" result="BackgroundImageFix"/>
<feColorMatrix in="SourceAlpha" type="matrix" values="0 0 0 0 0 0 0 0 0 0 0 0 0 0 0 0 0 0 127 0" result="hardAlpha"/>
<feOffset dy="4"/>
<feGaussianBlur stdDeviation="5"/>
<feComposite in2="hardAlpha" operator="out"/>
<feColorMatrix type="matrix" values="0 0 0 0 0 0 0 0 0 0 0 0 0 0 0 0 0 0 0.05 0"/>
<feBlend mode="normal" in2="BackgroundImageFix" result="effect1_dropShadow_12967_50820"/>
<feBlend mode="normal" in="SourceGraphic" in2="effect1_dropShadow_12967_50820" result="shape"/>
</filter>
</defs>
</svg>
